Coordinates
version=1
nRows=14
nColumns=36
inDegrees=yes

Units are S.I. units (second, meters, Newtons, ...)
If the header above contains a line with 'inDegrees', this indicates whether rotational values are in degrees (yes) or radians (no).

endheader
time	pelvis_tilt	pelvis_list	pelvis_rotation	pelvis_tx	pelvis_ty	pelvis_tz	hip_flexion_r	hip_adduction_r	hip_rotation_r	knee_angle_r	knee_angle_r_beta	ankle_angle_r	subtalar_angle_r	mtp_angle_r	hip_flexion_l	hip_adduction_l	hip_rotation_l	knee_angle_l	knee_angle_l_beta	ankle_angle_l	subtalar_angle_l	mtp_angle_l	lumbar_extension	lumbar_bending	lumbar_rotation	arm_flex_r	arm_add_r	arm_rot_r	elbow_flex_r	pro_sup_r	arm_flex_l	arm_add_l	arm_rot_l	elbow_flex_l	pro_sup_l
      4.35000000	    -35.54486242	     -2.37471657	     -6.35343499	      1.52228921	      0.56110367	      0.13736241	    105.25281366	    -17.41674223	     -5.53923805	    104.54233411	      1.82460794	     42.05651126	      6.45944473	     -7.49999987	    110.33023785	    -19.79436878	      5.63547663	    106.39229674	      1.85689588	     40.07019712	     -0.69936698	     -7.49999987	    -22.19325327	      2.47195446	     16.73460792	     93.77320636	     -3.70987121	     80.97453964	    119.47023709	     81.87885693	     85.58228688	      6.62325136	     68.15792194	    116.38338660	    103.85741474
      4.36666670	    -35.48011210	     -2.37283792	     -6.40167418	      1.52735014	      0.55641725	      0.13422167	    105.80970312	    -17.55128274	     -5.56311848	    104.96947434	      1.83206294	     41.82702236	      6.40152253	     -7.49999987	    110.87686170	    -19.74559189	      5.76355944	    106.78792222	      1.86380084	     39.90130531	     -0.71275954	     -7.49999987	    -22.82919468	      2.47565407	     16.64863931	     93.60245841	     -3.84902165	     81.12499807	    119.51681714	     81.87879627	     85.63869525	      6.69027955	     68.11073692	    116.45390916	    103.86517754
      4.38333330	    -35.97911874	     -2.46788946	     -6.38943237	      1.52599273	      0.55540833	      0.13456315	    106.64915246	    -17.69782102	     -5.72588819	    105.12303480	      1.83474308	     41.19971439	      5.89233835	     -7.49999987	    111.85777719	    -19.52865027	      5.98637967	    106.95323258	      1.86668605	     39.53347388	     -0.91395676	     -7.49999987	    -23.06145805	      2.59320332	     16.83976766	     93.87088410	     -4.31270595	     81.53956316	    120.02490273	     81.21689585	     85.77983650	      6.68389007	     68.01766371	    116.76226169	    103.29808250
      4.40000000	    -36.16924815	     -2.49066942	     -6.35962020	      1.51725673	      0.54914490	      0.13210663	    107.28915943	    -17.81197737	     -5.73365351	    105.32292671	      1.83823185	     40.72341472	      5.50937185	     -7.49999987	    112.52647983	    -19.35774161	      6.05970919	    107.15533795	      1.87021346	     39.15455856	     -1.10706615	     -7.49999987	    -23.46906060	      2.63227682	     17.06264316	     95.20675783	     -4.61047126	     81.84369203	    120.75998429	     81.13953465	     86.98451261	      7.38393861	     67.00650017	    116.95920546	    103.47630156
      4.41666670	    -36.40789680	     -2.52163498	     -6.30899307	      1.51156546	      0.54164365	      0.13530362	    108.08131746	    -17.92483116	     -5.73365429	    105.65158762	      1.84396806	     40.44578876	      5.48629650	     -7.49999987	    113.37471837	    -19.20606254	      6.17933127	    107.43546926	      1.87510267	     38.87991643	     -1.14441894	     -7.49999987	    -23.51814055	      2.62062681	     17.18995730	     96.27610074	     -4.38220372	     81.31499275	    120.89010545	     81.05208587	     88.36941101	      7.31048603	     66.10078051	    116.89566596	    103.49624823
      4.43333330	    -36.33939562	     -2.55772094	     -6.21510439	      1.50809630	      0.53681628	      0.13699689	    108.67370862	    -18.01699696	     -5.67721249	    106.11550532	      1.85206496	     40.07570275	      5.21987314	     -7.49999987	    113.99091816	    -19.04425056	      6.30732982	    107.75932312	      1.88075499	     38.38657516	     -1.55051857	     -7.49999987	    -24.00648921	      2.55593316	     17.30262172	     97.36717202	     -4.04502357	     81.17068803	    121.01533484	     79.11720415	     89.60542923	      6.87382464	     66.14872389	    117.10731541	    101.45698795
      4.45000000	    -36.47788187	     -2.56017702	     -6.11252309	      1.50749174	      0.53450866	      0.13810800	    109.40080816	    -18.10717284	     -5.63088248	    106.56084004	      1.85983751	     39.85108828	      5.25766805	     -7.49999987	    114.74154999	    -18.89393231	      6.43444801	    108.03256797	      1.88552401	     38.07581004	     -1.65719320	     -7.49999987	    -24.15089369	      2.48590754	     17.22249763	     97.47373362	     -4.11601998	     81.49665377	    120.54322457	     77.09784390	     89.79208519	      6.62819039	     66.49317037	    116.28445242	     99.17040913
      4.46666670	    -36.30885790	     -2.60200614	     -6.05507449	      1.50840818	      0.52784248	      0.13820883	    109.79035810	    -18.19455297	     -5.60238077	    107.04375575	      1.86826598	     39.74600894	      5.20426285	     -7.49999987	    115.13034523	    -18.83091334	      6.59446062	    108.39620850	      1.89187074	     37.93084856	     -1.68617112	     -7.49999987	    -24.35967018	      2.40352715	     17.36064392	     97.50879101	     -4.02601704	     81.55103020	    120.57096810	     77.08539414	     89.87721933	      6.57433733	     66.50996389	    116.21363862	     99.21433776
      4.48333330	    -36.51870785	     -2.68580139	     -6.00483667	      1.51212859	      0.53048206	      0.13703116	    110.27879686	    -18.26950337	     -5.68044379	    107.31766736	      1.87304664	     39.47655135	      5.03760714	     -7.49999987	    115.70692964	    -18.68600363	      6.81241438	    108.57751500	      1.89503513	     37.64031974	     -1.82323996	     -7.49999987	    -24.27380169	      2.47294030	     17.27010765	     97.01514231	     -4.48868939	     82.91412569	    120.25849004	     77.00257084	     89.61756338	      6.07962980	     67.82451003	    115.26226088	     99.59703070
      4.50000000	    -36.56618065	     -2.73530731	     -5.97105536	      1.50829025	      0.52433968	      0.13905168	    110.67062535	    -18.30655411	     -5.65835645	    107.67395815	      1.87926509	     39.40382784	      5.07011088	     -7.49999987	    116.12797662	    -18.63635427	      6.98460398	    108.86655993	      1.90007992	     37.51834542	     -1.76513086	     -7.49999987	    -24.12105345	      2.38846984	     17.27671142	     97.20715949	     -4.50499640	     82.99932222	    120.14986947	     76.96371536	     90.33610298	      6.52384757	     67.64959466	    115.36315818	     99.70580891
      4.51666670	    -36.43457337	     -2.78726962	     -5.94867266	      1.51137156	      0.52661718	      0.13615447	    110.70782134	    -18.36396091	     -5.66495410	    107.90131773	      1.88323326	     39.33955537	      5.03285813	     -7.49999987	    116.19369206	    -18.59598301	      7.07256081	    109.05320943	      1.90333756	     37.52330530	     -1.77956709	     -7.49999987	    -24.31202692	      2.27706169	     17.18409011	     96.93838208	     -4.98581001	     83.59611141	    120.00579879	     76.87650010	     90.32744580	      6.44825987	     68.21729018	    114.96747076	     99.87096511
      4.53333330	    -36.46040132	     -2.83797962	     -5.92793775	      1.50752113	      0.52067113	      0.13823211	    110.97477030	    -18.34942038	     -5.62884581	    108.17660340	      1.88803790	     39.30416835	      5.05820618	     -7.49999987	    116.49903460	    -18.58595953	      7.17145329	    109.30971330	      1.90781440	     37.50871471	     -1.72656579	     -7.49999987	    -24.05821342	      2.22686558	     17.22629595	     97.48556941	     -4.92199893	     83.26674894	    120.23927588	     76.79154002	     90.99730396	      6.54579676	     68.09470940	    114.93460558	     99.92557762
      4.55000000	    -36.25401780	     -2.90687932	     -5.93077242	      1.50643736	      0.52021822	      0.13878291	    110.99724549	    -18.28947626	     -5.64497734	    108.41131208	      1.89213434	     39.20017493	      4.97321635	     -7.49999987	    116.56708400	    -18.63539726	      7.30222072	    109.51262466	      1.91135587	     37.53070207	     -1.71384426	     -7.49999987	    -24.13530336	      1.93391082	     17.15276762	     97.92613634	     -5.21717077	     83.36908481	    120.89577102	     72.13478067	     92.62284558	      7.04522814	     69.23287757	    114.64645519	     93.64675897
      4.56666670	    -36.27117094	     -2.94749985	     -5.88992258	      1.50761127	      0.52647887	      0.13796959	    110.95497658	    -18.29132431	     -5.71729515	    108.35904102	      1.89122204	     39.13543140	      5.10135204	     -7.49999987	    116.60584228	    -18.61366073	      7.29814122	    109.47100493	      1.91062947	     37.52847068	     -1.58903071	     -7.49999987	    -24.26985188	      1.85697616	     17.13784494	     97.61149966	     -5.67929118	     83.55467743	    120.37114237	     71.75341574	     92.03375511	      6.98904727	     68.86836361	    114.28902523	    100.89988372
